<?xml version='1.0' encoding='UTF-8'?>
<svg xmlns="http://www.w3.org/2000/svg" overflow="hidden" viewBox="920.2864 223.2205 680.4976 473.4425">
    <defs>
        <linearGradient x1="1138" y1="386.495" x2="1138" y2="360.495" gradientUnits="userSpaceOnUse" spreadMethod="reflect" id="fill3">
            <stop offset="0" stop-color="#FCC0D3"/>
            <stop offset="0.53" stop-color="#FFFFFF"/>
            <stop offset="1" stop-color="#CBE9F7"/>
        </linearGradient>
        <linearGradient x1="1437.5" y1="271.996" x2="1437.5" y2="248.997" gradientUnits="userSpaceOnUse" spreadMethod="reflect" id="fill4">
            <stop offset="0" stop-color="#FFCC66"/>
            <stop offset="0.11" stop-color="#FFCC66"/>
            <stop offset="0.539" stop-color="#FFFFFF"/>
            <stop offset="0.89" stop-color="#CBE9F7"/>
            <stop offset="1" stop-color="#CBE9F7"/>
        </linearGradient>
        <linearGradient x1="1250.5" y1="440.994" x2="1285.5" y2="440.994" gradientUnits="userSpaceOnUse" spreadMethod="reflect" id="fill6">
            <stop offset="0" stop-color="#FCC0D3"/>
            <stop offset="0.53" stop-color="#FFFFFF"/>
            <stop offset="1" stop-color="#FFC000"/>
        </linearGradient>
        <linearGradient x1="1138" y1="508.993" x2="1138" y2="486.993" gradientUnits="userSpaceOnUse" spreadMethod="reflect" id="fill10">
            <stop offset="0" stop-color="#FFCC66"/>
            <stop offset="0.11" stop-color="#FFCC66"/>
            <stop offset="0.539" stop-color="#FFFFFF"/>
            <stop offset="0.89" stop-color="#CBE9F7"/>
            <stop offset="1" stop-color="#CBE9F7"/>
        </linearGradient>
        <linearGradient x1="1250.5" y1="403.494" x2="1285.5" y2="403.494" gradientUnits="userSpaceOnUse" spreadMethod="reflect" id="fill17">
            <stop offset="0" stop-color="#8ED973"/>
            <stop offset="0.53" stop-color="#FFFFFF"/>
            <stop offset="1" stop-color="#FFC000"/>
        </linearGradient>
        <linearGradient x1="1190" y1="573.992" x2="1190" y2="596.992" gradientUnits="userSpaceOnUse" spreadMethod="reflect" id="fill21">
            <stop offset="0" stop-color="#F8E4F6"/>
            <stop offset="0.11" stop-color="#F8E4F6"/>
            <stop offset="0.539" stop-color="#FFFFFF"/>
            <stop offset="0.89" stop-color="#FFC000"/>
            <stop offset="1" stop-color="#FFC000"/>
        </linearGradient>
        <linearGradient x1="1190" y1="485.993" x2="1190" y2="508.993" gradientUnits="userSpaceOnUse" spreadMethod="reflect" id="fill22">
            <stop offset="0" stop-color="#8ED973"/>
            <stop offset="0.11" stop-color="#8ED973"/>
            <stop offset="0.539" stop-color="#FFFFFF"/>
            <stop offset="0.89" stop-color="#F8E4F6"/>
            <stop offset="1" stop-color="#F8E4F6"/>
        </linearGradient>
        <linearGradient x1="1386" y1="336.995" x2="1386" y2="359.995" gradientUnits="userSpaceOnUse" spreadMethod="reflect" id="fill23">
            <stop offset="0" stop-color="#F8E4F6"/>
            <stop offset="0.11" stop-color="#F8E4F6"/>
            <stop offset="0.539" stop-color="#FFFFFF"/>
            <stop offset="0.89" stop-color="#FFC000"/>
            <stop offset="1" stop-color="#FFC000"/>
        </linearGradient>
        <linearGradient x1="1386" y1="248.997" x2="1386" y2="270.996" gradientUnits="userSpaceOnUse" spreadMethod="reflect" id="fill24">
            <stop offset="0" stop-color="#8ED973"/>
            <stop offset="0.1" stop-color="#8ED973"/>
            <stop offset="0.539" stop-color="#FFFFFF"/>
            <stop offset="0.89" stop-color="#F8E4F6"/>
            <stop offset="1" stop-color="#F8E4F6"/>
        </linearGradient>
    </defs>
    <g>
        <path d="M1267 332.163C1267 316.607 1279.61 303.996 1295.17 303.996L1491.83 303.996C1507.39 303.996 1520 316.607 1520 332.163L1520 444.827C1520 460.383 1507.39 472.993 1491.83 472.993L1295.17 472.993C1279.61 472.993 1267 460.383 1267 444.827Z" fill="#F2F2F2" fill-rule="evenodd" id="ID-0000001"/>
        <path d="M1264 332.012 1264.62 325.885 1266.44 320.027 1269.31 314.728 1273.12 310.114 1277.73 306.308 1283.03 303.431 1288.89 301.613 1295.02 300.995 1491.98 300.995 1498.11 301.613 1503.97 303.431 1509.27 306.308 1513.88 310.114 1517.69 314.728 1520.56 320.027 1522.38 325.885 1523 332.012 1523 444.977 1522.38 451.104 1520.56 456.962 1517.69 462.261 1513.88 466.875 1509.27 470.682 1503.97 473.558 1498.11 475.376 1491.98 475.994 1295.02 475.994 1288.89 475.376 1283.03 473.558 1277.73 470.682 1273.12 466.875 1269.31 462.261 1266.44 456.962 1264.62 451.104 1264 444.977ZM1266 444.877 1266.59 450.704 1268.29 456.181 1270.98 461.137 1274.54 465.454 1278.86 469.016 1283.81 471.706 1289.29 473.406 1295.12 473.994 1491.88 473.994 1497.71 473.406 1503.19 471.706 1508.14 469.016 1512.46 465.454 1516.02 461.137 1518.71 456.181 1520.41 450.704 1521 444.877 1521 332.112 1520.41 326.286 1518.71 320.808 1516.02 315.852 1512.46 311.535 1508.14 307.973 1503.19 305.283 1497.71 303.583 1491.88 302.996 1295.12 302.996 1289.29 303.583 1283.81 305.283 1278.86 307.973 1274.54 311.535 1270.98 315.852 1268.29 320.808 1266.59 326.286 1266 332.112ZM1268 332.213 1268.56 326.687 1270.14 321.589 1272.64 316.976 1275.96 312.956 1279.98 309.639 1284.59 307.135 1289.69 305.553 1295.22 304.996 1491.78 304.996 1497.31 305.553 1502.41 307.135 1507.02 309.639 1511.04 312.956 1514.36 316.976 1516.86 321.589 1518.44 326.687 1519 332.213 1519 444.776 1518.44 450.303 1516.86 455.4 1514.36 460.013 1511.04 464.033 1507.02 467.35 1502.41 469.854 1497.31 471.436 1491.78 471.993 1295.22 471.993 1289.69 471.436 1284.59 469.854 1279.98 467.35 1275.96 464.033 1272.64 460.013 1270.14 455.4 1268.56 450.303 1268 444.776ZM1270 444.676 1270.53 449.902 1271.99 454.619 1274.31 458.889 1277.38 462.612 1281.1 465.684 1285.38 468.002 1290.09 469.466 1295.32 469.993 1491.68 469.993 1496.91 469.466 1501.63 468.002 1505.9 465.684 1509.62 462.612 1512.69 458.889 1515.01 454.619 1516.47 449.902 1517 444.676 1517 332.314 1516.47 327.087 1515.01 322.371 1512.69 318.1 1509.62 314.377 1505.9 311.305 1501.63 308.987 1496.91 307.523 1491.68 306.996 1295.32 306.996 1290.09 307.523 1285.38 308.987 1281.1 311.305 1277.38 314.377 1274.31 318.1 1271.99 322.371 1270.53 327.087 1270 332.314Z" fill="#BF9000" id="ID-0000002"/>
        <path d="M1348.5 275.163C1348.5 267.063 1355.07 260.496 1363.17 260.496L1459.83 260.496C1467.93 260.496 1474.5 267.063 1474.5 275.163L1474.5 333.828C1474.5 341.929 1467.93 348.495 1459.83 348.495L1363.17 348.495C1355.07 348.495 1348.5 341.929 1348.5 333.828Z" stroke="#3B7D23" stroke-width="1.00012" stroke-miterlimit="8" fill="#F8E4F6" fill-rule="evenodd" id="ID-0000003"/>
        <path d="M999 566.326C999 552.335 1010.34 540.993 1024.33 540.993L1232.67 540.993C1246.66 540.993 1258 552.335 1258 566.326L1258 667.657C1258 681.648 1246.66 692.99 1232.67 692.99L1024.33 692.99C1010.34 692.99 999 681.648 999 667.657Z" fill="#F2F2F2" fill-rule="evenodd" id="ID-0000004"/>
        <path d="M996 566.175 996.56 560.619 998.213 555.293 1000.83 550.476 1004.29 546.281 1008.48 542.82 1013.3 540.206 1018.63 538.552 1024.18 537.992 1232.82 537.992 1238.37 538.552 1243.7 540.206 1248.52 542.82 1252.71 546.281 1256.17 550.476 1258.79 555.293 1260.44 560.619 1261 566.175 1261 667.808 1260.44 673.364 1258.79 678.69 1256.17 683.507 1252.71 687.702 1248.52 691.163 1243.7 693.777 1238.37 695.431 1232.82 695.991 1024.18 695.991 1018.63 695.431 1013.3 693.777 1008.48 691.163 1004.29 687.702 1000.83 683.507 998.213 678.69 996.56 673.364 996 667.808ZM998 667.707 998.53 672.963 1000.06 677.908 1002.49 682.383 1005.71 686.281 1009.61 689.497 1014.08 691.926 1019.03 693.461 1024.28 693.991 1232.72 693.991 1237.97 693.461 1242.92 691.926 1247.39 689.497 1251.29 686.281 1254.51 682.383 1256.94 677.908 1258.47 672.963 1259 667.707 1259 566.276 1258.47 561.02 1256.94 556.075 1254.51 551.6 1251.29 547.702 1247.39 544.486 1242.92 542.057 1237.97 540.522 1232.72 539.992 1024.28 539.992 1019.03 540.522 1014.08 542.057 1009.61 544.486 1005.71 547.702 1002.49 551.6 1000.06 556.075 998.53 561.02 998 566.276ZM1000 566.376 1000.5 561.421 1001.92 556.856 1004.16 552.724 1007.13 549.123 1010.73 546.152 1014.86 543.909 1019.43 542.492 1024.38 541.993 1232.62 541.993 1237.57 542.492 1242.14 543.909 1246.27 546.152 1249.87 549.123 1252.84 552.724 1255.08 556.856 1256.5 561.421 1257 566.376 1257 667.607 1256.5 672.562 1255.08 677.127 1252.84 681.259 1249.87 684.86 1246.27 687.831 1242.14 690.074 1237.57 691.491 1232.62 691.99 1024.38 691.99 1019.43 691.491 1014.86 690.074 1010.73 687.831 1007.13 684.86 1004.16 681.259 1001.92 677.127 1000.5 672.562 1000 667.607ZM1002 667.506 1002.47 672.161 1003.77 676.346 1005.83 680.135 1008.55 683.439 1011.86 686.165 1015.64 688.222 1019.83 689.521 1024.48 689.99 1232.52 689.99 1237.17 689.521 1241.36 688.222 1245.14 686.165 1248.45 683.439 1251.17 680.135 1253.23 676.346 1254.53 672.161 1255 667.506 1255 566.477 1254.53 561.822 1253.23 557.637 1251.17 553.848 1248.45 550.544 1245.14 547.818 1241.36 545.761 1237.17 544.462 1232.52 543.993 1024.48 543.993 1019.83 544.462 1015.64 545.761 1011.86 547.818 1008.55 550.544 1005.83 553.848 1003.77 557.637 1002.47 561.822 1002 566.477Z" fill="#BF9000" id="ID-0000005"/>
        <path d="M1101.5 514.16C1101.5 506.06 1108.07 499.493 1116.17 499.493L1212.83 499.493C1220.93 499.493 1227.5 506.06 1227.5 514.16L1227.5 572.825C1227.5 580.925 1220.93 587.492 1212.83 587.492L1116.17 587.492C1108.07 587.492 1101.5 580.925 1101.5 572.825Z" stroke="#3B7D23" stroke-width="1.00012" stroke-miterlimit="8" fill="#F8E4F6" fill-rule="evenodd" id="ID-0000006"/>
        <path d="M933.5 329.996C933.5 314.808 945.812 302.496 961.001 302.496L1185 302.496C1200.19 302.496 1212.5 314.808 1212.5 329.996L1212.5 439.993C1212.5 455.181 1200.19 467.494 1185 467.494L961.001 467.494C945.812 467.494 933.5 455.181 933.5 439.993Z" fill="#F2F2F2" fill-rule="evenodd" id="ID-0000007"/>
        <path d="M932.833 329.963 933.402 324.32 935.044 319.031 937.641 314.246 941.081 310.077 945.25 306.637 950.036 304.04 955.325 302.398 960.967 301.829 1185.03 301.829 1190.68 302.398 1195.96 304.04 1200.75 306.637 1204.92 310.077 1208.36 314.246 1210.96 319.031 1212.6 324.32 1213.17 329.963 1213.17 440.027 1212.6 445.669 1210.96 450.958 1208.36 455.744 1204.92 459.913 1200.75 463.352 1195.96 465.95 1190.68 467.591 1185.03 468.16 960.967 468.16 955.325 467.591 950.036 465.95 945.25 463.352 941.081 459.913 937.641 455.744 935.044 450.958 933.402 445.669 932.833 440.027ZM933.278 440.004 933.84 445.58 935.455 450.784 938.012 455.494 941.397 459.597 945.5 462.982 950.209 465.538 955.414 467.154 960.989 467.716 1185.01 467.716 1190.59 467.154 1195.79 465.538 1200.5 462.982 1204.6 459.597 1207.99 455.494 1210.54 450.784 1212.16 445.58 1212.72 440.004 1212.72 329.985 1212.16 324.409 1210.54 319.205 1207.99 314.496 1204.6 310.393 1200.5 307.007 1195.79 304.451 1190.59 302.836 1185.01 302.274 960.989 302.274 955.414 302.836 950.209 304.451 945.5 307.007 941.397 310.393 938.012 314.496 935.455 319.205 933.84 324.409 933.278 329.985ZM933.722 330.007 934.278 324.498 935.867 319.379 938.382 314.745 941.713 310.708 945.75 307.378 950.383 304.863 955.503 303.273 961.012 302.718 1184.99 302.718 1190.5 303.273 1195.62 304.863 1200.25 307.378 1204.29 310.708 1207.62 314.745 1210.13 319.379 1211.72 324.498 1212.28 330.007 1212.28 439.982 1211.72 445.491 1210.13 450.611 1207.62 455.244 1204.29 459.281 1200.25 462.612 1195.62 465.127 1190.5 466.716 1184.99 467.271 961.012 467.271 955.503 466.716 950.383 465.127 945.75 462.612 941.713 459.281 938.382 455.244 935.867 450.611 934.278 445.491 933.722 439.982ZM934.167 439.96 934.715 445.402 936.278 450.437 938.752 454.994 942.028 458.965 945.999 462.242 950.557 464.715 955.592 466.278 961.034 466.827 1184.97 466.827 1190.41 466.278 1195.44 464.715 1200 462.242 1203.97 458.965 1207.25 454.994 1209.72 450.437 1211.28 445.402 1211.83 439.96 1211.83 330.03 1211.28 324.587 1209.72 319.552 1207.25 314.995 1203.97 311.024 1200 307.748 1195.44 305.274 1190.41 303.711 1184.97 303.163 961.034 303.163 955.592 303.711 950.557 305.274 945.999 307.748 942.028 311.024 938.752 314.995 936.278 319.552 934.715 324.587 934.167 330.03Z" fill="#BF9000" id="ID-0000008"/>
        <text font-family="Calibri,Calibri_MSFontService,sans-serif" font-weight="700" font-size="16" transform="matrix(1 0 0 0.999986 1291.52 322)">Kidney</text>
        <text font-family="Calibri,Calibri_MSFontService,sans-serif" font-weight="700" font-size="16" transform="matrix(1 0 0 0.999986 1034.6 560)">GI tract</text>
        <path d="M1120.5 437.761C1120.5 432.091 1125.1 427.494 1130.77 427.494L1145.23 427.494C1150.9 427.494 1155.5 432.091 1155.5 437.761L1155.5 444.227C1155.5 449.897 1150.9 454.494 1145.23 454.494L1130.77 454.494C1125.1 454.494 1120.5 449.897 1120.5 444.227Z" stroke="#FF0000" stroke-width="1.3335" stroke-linejoin="round" stroke-miterlimit="10" fill="#FCC0D3" fill-rule="evenodd" id="ID-0000009"/>
        <text font-family="Cambria Math,Cambria Math_MSFontService,sans-serif" font-weight="400" font-size="13" transform="matrix(1 0 0 0.999986 1123.73 446)">𝑞</text>
        <text font-family="Cambria Math,Cambria Math_MSFontService,sans-serif" font-weight="400" font-size="9" transform="matrix(1 0 0 0.999986 1131.4 450)">𝑎𝑐</text>
        <text font-family="Cambria Math,Cambria Math_MSFontService,sans-serif" font-weight="400" font-size="9" transform="matrix(1 0 0 0.999986 1131.74 439)">𝐻</text>
        <text font-family="Cambria Math,Cambria Math_MSFontService,sans-serif" font-weight="400" font-size="8" transform="matrix(1 0 0 0.999986 1138.55 441)">2</text>
        <text font-family="Cambria Math,Cambria Math_MSFontService,sans-serif" font-weight="400" font-size="9" transform="matrix(1 0 0 0.999986 1143.79 439)">𝑂</text>
        <path d="M951.5 437.761C951.5 432.091 956.097 427.494 961.767 427.494L1028.23 427.494C1033.9 427.494 1038.5 432.091 1038.5 437.761L1038.5 444.227C1038.5 449.897 1033.9 454.494 1028.23 454.494L961.767 454.494C956.097 454.494 951.5 449.897 951.5 444.227Z" stroke="#FF0000" stroke-width="1.3335" stroke-linejoin="round" stroke-miterlimit="10" fill="#CBE9F7" fill-rule="evenodd" id="ID-0000010"/>
        <text font-family="Cambria Math,Cambria Math_MSFontService,sans-serif" font-weight="400" font-size="13" transform="matrix(1 0 0 0.999986 954.838 446)">𝑞</text>
        <text font-family="Cambria Math,Cambria Math_MSFontService,sans-serif" font-weight="400" font-size="9" transform="matrix(1 0 0 0.999986 961.745 450)">𝑣𝑐</text>
        <text font-family="Cambria Math,Cambria Math_MSFontService,sans-serif" font-weight="400" font-size="9" transform="matrix(1 0 0 0.999986 962.412 439)">𝐻</text>
        <text font-family="Cambria Math,Cambria Math_MSFontService,sans-serif" font-weight="400" font-size="8" transform="matrix(1 0 0 0.999986 969.226 441)">2</text>
        <text font-family="Cambria Math,Cambria Math_MSFontService,sans-serif" font-weight="400" font-size="9" transform="matrix(1 0 0 0.999986 974.467 439)">𝑂</text>
        <text font-family="Cambria Math,Cambria Math_MSFontService,sans-serif" font-weight="400" font-size="13" transform="matrix(1 0 0 0.999986 982.094 446)">,</text>
        <text font-family="Cambria Math,Cambria Math_MSFontService,sans-serif" font-weight="400" font-size="13" transform="matrix(1 0 0 0.999986 986.982 446)">𝑢</text>
        <text font-family="Cambria Math,Cambria Math_MSFontService,sans-serif" font-weight="400" font-size="9" transform="matrix(1 0 0 0.999986 994.649 449)">𝑣𝑐</text>
        <text font-family="Cambria Math,Cambria Math_MSFontService,sans-serif" font-weight="400" font-size="9" transform="matrix(1 0 0 0.999986 994.989 441)">𝑜𝑠𝑚𝑜𝑡𝑖𝑐</text>
        <path d="M1061.5 437.761C1061.5 432.091 1066.1 427.494 1071.77 427.494L1086.23 427.494C1091.9 427.494 1096.5 432.091 1096.5 437.761L1096.5 444.227C1096.5 449.897 1091.9 454.494 1086.23 454.494L1071.77 454.494C1066.1 454.494 1061.5 449.897 1061.5 444.227Z" stroke="#00B050" stroke-width="1.3335" stroke-linejoin="round" stroke-miterlimit="10" fill="#FFD1FF" fill-rule="evenodd" id="ID-0000011"/>
        <text fill="#FF0000" font-family="Cambria Math,Cambria Math_MSFontService,sans-serif" font-weight="400" font-size="13" transform="matrix(1 0 0 0.999986 1064.68 446)">𝑣</text>
        <text fill="#FF0000" font-family="Cambria Math,Cambria Math_MSFontService,sans-serif" font-weight="400" font-size="9" transform="matrix(1 0 0 0.999986 1071.88 450)">𝑙𝑣</text>
        <text fill="#FF0000" font-family="Cambria Math,Cambria Math_MSFontService,sans-serif" font-weight="400" font-size="9" transform="matrix(1 0 0 0.999986 1072.8 439)">𝐻</text>
        <text fill="#FF0000" font-family="Cambria Math,Cambria Math_MSFontService,sans-serif" font-weight="400" font-size="8" transform="matrix(1 0 0 0.999986 1079.61 441)">2</text>
        <text fill="#FF0000" font-family="Cambria Math,Cambria Math_MSFontService,sans-serif" font-weight="400" font-size="9" transform="matrix(1 0 0 0.999986 1084.85 439)">𝑂</text>
        <path d="M1120.5 370.382C1120.5 364.921 1124.93 360.495 1130.39 360.495L1145.61 360.495C1151.07 360.495 1155.5 364.921 1155.5 370.382L1155.5 376.608C1155.5 382.068 1151.07 386.495 1145.61 386.495L1130.39 386.495C1124.93 386.495 1120.5 382.068 1120.5 376.608Z" stroke="#00B050" stroke-width="1.3335" stroke-linejoin="round" stroke-miterlimit="10" fill="url(#fill3)" fill-rule="evenodd" id="ID-0000012"/>
        <text font-family="Cambria Math,Cambria Math_MSFontService,sans-serif" font-weight="400" font-size="13" transform="matrix(1 0 0 0.999986 1123.67 379)">𝑣</text>
        <text font-family="Cambria Math,Cambria Math_MSFontService,sans-serif" font-weight="400" font-size="9" transform="matrix(1 0 0 0.999986 1130.23 382)">𝑐𝑐</text>
        <text font-family="Cambria Math,Cambria Math_MSFontService,sans-serif" font-weight="400" font-size="9" transform="matrix(1 0 0 0.999986 1131.79 372)">𝐻</text>
        <text font-family="Cambria Math,Cambria Math_MSFontService,sans-serif" font-weight="400" font-size="8" transform="matrix(1 0 0 0.999986 1138.61 374)">2</text>
        <text font-family="Cambria Math,Cambria Math_MSFontService,sans-serif" font-weight="400" font-size="9" transform="matrix(1 0 0 0.999986 1143.85 372)">𝑂</text>
        <text font-family="Calibri,Calibri_MSFontService,sans-serif" font-weight="700" font-size="16" transform="matrix(1 0 0 0.999986 1032.75 322)">Circulation</text>
        <path d="M1038 439.994 1055.04 439.994 1055.04 441.994 1038 441.994ZM1053.71 436.994 1061.71 440.994 1053.71 444.994Z" fill="#0070C0" id="ID-0000013"/>
        <path d="M1096 439.994 1113.77 439.994 1113.77 441.994 1096 441.994ZM1112.43 436.994 1120.43 440.994 1112.43 444.994Z" fill="#0070C0" id="ID-0000014"/>
        <path d="M1.00011-2.56211e-06 1.0002 34.3184-1.00002 34.3184-1.00011 2.56211e-06ZM4.00053 32.9849 0.000104998 40.9858-4.00036 32.985Z" fill="#0070C0" transform="matrix(1.00001 0 0 -1 1138 426.98)" id="ID-0000015"/>
        <path d="M1136.46 359.995 1136.46 342.413 1137.46 343.413 994 343.413 995 342.413 995 420.773 993 420.773 993 341.413 1138.46 341.413 1138.46 359.995ZM998 419.44 994 427.441 990 419.44Z" fill="#0070C0" id="ID-0000016"/>
        <path d="M1419 254.183C1419 251.319 1421.32 248.997 1424.19 248.997L1450.81 248.997C1453.68 248.997 1456 251.319 1456 254.183L1456 266.81C1456 269.674 1453.68 271.996 1450.81 271.996L1424.19 271.996C1421.32 271.996 1419 269.674 1419 266.81Z" stroke="#042433" stroke-width="2.00025" stroke-miterlimit="8" fill="url(#fill4)" fill-rule="evenodd" id="ID-0000017"/>
        <text font-family="Cambria Math,Cambria Math_MSFontService,sans-serif" font-weight="400" font-size="13" transform="matrix(1 0 0 0.999986 1423.94 265)">𝑣</text>
        <text font-family="Cambria Math,Cambria Math_MSFontService,sans-serif" font-weight="400" font-size="9" transform="matrix(1 0 0 0.999986 1430.5 269)">𝑝𝑡</text>
        <text font-family="Cambria Math,Cambria Math_MSFontService,sans-serif" font-weight="400" font-size="9" transform="matrix(1 0 0 0.999986 1432.07 258)">𝐻</text>
        <text font-family="Cambria Math,Cambria Math_MSFontService,sans-serif" font-weight="400" font-size="8" transform="matrix(1 0 0 0.999986 1438.88 260)">2</text>
        <text font-family="Cambria Math,Cambria Math_MSFontService,sans-serif" font-weight="400" font-size="9" transform="matrix(1 0 0 0.999986 1444.12 258)">𝑂</text>
        <path d="M1239.5 392.995C1239.5 388.3 1243.31 384.495 1248 384.495L1282 384.495C1286.69 384.495 1290.5 388.3 1290.5 392.995L1290.5 450.994C1290.5 455.688 1286.69 459.494 1282 459.494L1248 459.494C1243.31 459.494 1239.5 455.688 1239.5 450.994Z" stroke="#3B7D23" stroke-width="1.00012" stroke-miterlimit="8" fill="#F8E4F6" fill-rule="evenodd" id="ID-0000018"/>
        <path d="M1413.5 437.761C1413.5 432.091 1418.1 427.494 1423.77 427.494L1490.23 427.494C1495.9 427.494 1500.5 432.091 1500.5 437.761L1500.5 444.227C1500.5 449.897 1495.9 454.494 1490.23 454.494L1423.77 454.494C1418.1 454.494 1413.5 449.897 1413.5 444.227Z" stroke="#FF0000" stroke-width="1.3335" stroke-linejoin="round" stroke-miterlimit="10" fill="#FFE696" fill-rule="evenodd" id="ID-0000019"/>
        <text font-family="Cambria Math,Cambria Math_MSFontService,sans-serif" font-weight="400" font-size="13" transform="matrix(1 0 0 0.999986 1416.69 445)">𝑞</text>
        <text font-family="Cambria Math,Cambria Math_MSFontService,sans-serif" font-weight="400" font-size="9" transform="matrix(1 0 0 0.999986 1423.6 449)">𝑝𝑡</text>
        <text font-family="Cambria Math,Cambria Math_MSFontService,sans-serif" font-weight="400" font-size="9" transform="matrix(1 0 0 0.999986 1424.26 438)">𝐻</text>
        <text font-family="Cambria Math,Cambria Math_MSFontService,sans-serif" font-weight="400" font-size="8" transform="matrix(1 0 0 0.999986 1431.08 440)">2</text>
        <text font-family="Cambria Math,Cambria Math_MSFontService,sans-serif" font-weight="400" font-size="9" transform="matrix(1 0 0 0.999986 1436.32 438)">𝑂</text>
        <text font-family="Cambria Math,Cambria Math_MSFontService,sans-serif" font-weight="400" font-size="13" transform="matrix(1 0 0 0.999986 1443.95 445)">,</text>
        <text font-family="Cambria Math,Cambria Math_MSFontService,sans-serif" font-weight="400" font-size="13" transform="matrix(1 0 0 0.999986 1448.83 445)">𝑢</text>
        <text font-family="Cambria Math,Cambria Math_MSFontService,sans-serif" font-weight="400" font-size="9" transform="matrix(1 0 0 0.999986 1456.5 448)">𝑝𝑡</text>
        <text font-family="Cambria Math,Cambria Math_MSFontService,sans-serif" font-weight="400" font-size="9" transform="matrix(1 0 0 0.999986 1456.84 440)">𝑜𝑠𝑚𝑜𝑡𝑖𝑐</text>
        <path d="M1155 439.994 1243.37 439.994 1243.37 441.994 1155 441.994ZM1242.04 436.994 1250.04 440.994 1242.04 444.994Z" fill="#0070C0" id="ID-0000020"/>
        <path d="M1250.5 437.761C1250.5 432.091 1255.1 427.494 1260.77 427.494L1275.23 427.494C1280.9 427.494 1285.5 432.091 1285.5 437.761L1285.5 444.227C1285.5 449.897 1280.9 454.494 1275.23 454.494L1260.77 454.494C1255.1 454.494 1250.5 449.897 1250.5 444.227Z" stroke="#00B050" stroke-width="1.3335" stroke-linejoin="round" stroke-miterlimit="10" fill="url(#fill6)" fill-rule="evenodd" id="ID-0000021"/>
        <text font-family="Cambria Math,Cambria Math_MSFontService,sans-serif" font-weight="400" font-size="13" transform="matrix(1 0 0 0.999986 1253.69 445)">𝑣</text>
        <text font-family="Cambria Math,Cambria Math_MSFontService,sans-serif" font-weight="400" font-size="9" transform="matrix(1 0 0 0.999986 1260.32 449)">𝑔𝑙</text>
        <text font-family="Cambria Math,Cambria Math_MSFontService,sans-serif" font-weight="400" font-size="9" transform="matrix(1 0 0 0.999986 1261.81 438)">𝐻</text>
        <text font-family="Cambria Math,Cambria Math_MSFontService,sans-serif" font-weight="400" font-size="8" transform="matrix(1 0 0 0.999986 1268.63 440)">2</text>
        <text font-family="Cambria Math,Cambria Math_MSFontService,sans-serif" font-weight="400" font-size="9" transform="matrix(1 0 0 0.999986 1273.87 438)">𝑂</text>
        <path d="M1285 439.994 1405.55 439.994 1405.55 441.994 1285 441.994ZM1404.21 436.994 1412.21 440.994 1404.21 444.994Z" fill="#0070C0" id="ID-0000022"/>
        <path d="M1557.5 437.761C1557.5 432.091 1562.1 427.494 1567.77 427.494L1589.23 427.494C1594.9 427.494 1599.5 432.091 1599.5 437.761L1599.5 444.227C1599.5 449.897 1594.9 454.494 1589.23 454.494L1567.77 454.494C1562.1 454.494 1557.5 449.897 1557.5 444.227Z" stroke="#00B050" stroke-width="1.3335" stroke-linejoin="round" stroke-miterlimit="10" fill="#FFE696" fill-rule="evenodd" id="ID-0000023"/>
        <text fill="#FF0000" font-family="Cambria Math,Cambria Math_MSFontService,sans-serif" font-weight="400" font-size="13" transform="matrix(1 0 0 0.999986 1563.21 446)">𝑣</text>
        <text fill="#FF0000" font-family="Cambria Math,Cambria Math_MSFontService,sans-serif" font-weight="400" font-size="9" transform="matrix(1 0 0 0.999986 1569.76 450)">𝑜𝑢𝑡2</text>
        <text fill="#FF0000" font-family="Cambria Math,Cambria Math_MSFontService,sans-serif" font-weight="400" font-size="9" transform="matrix(1 0 0 0.999986 1571.33 439)">𝐻</text>
        <text fill="#FF0000" font-family="Cambria Math,Cambria Math_MSFontService,sans-serif" font-weight="400" font-size="8" transform="matrix(1 0 0 0.999986 1578.14 441)">2</text>
        <text fill="#FF0000" font-family="Cambria Math,Cambria Math_MSFontService,sans-serif" font-weight="400" font-size="9" transform="matrix(1 0 0 0.999986 1583.38 439)">𝑂</text>
        <path d="M1.00011-6.74911e-07 1.00021 148.924-1.00001 148.924-1.00011 6.74911e-07ZM4.00054 147.59 0.000104998 155.591-4.00034 147.59Z" fill="#0070C0" transform="matrix(1.00001 0 0 -1 1437 427.587)" id="ID-0000024"/>
        <path d="M1436.26 248.997 1436.26 224.994 1437.26 225.994 994 225.994 995 224.994 995 420.6 993 420.6 993 223.994 1438.26 223.994 1438.26 248.997ZM998 419.267 994 427.267 990 419.267Z" fill="#0070C0" id="ID-0000025"/>
        <path d="M1500 439.994 1550.79 439.994 1550.79 441.994 1500 441.994ZM1549.46 436.994 1557.46 440.994 1549.46 444.994Z" fill="#0070C0" id="ID-0000026"/>
        <path d="M1.00011-1.0512e-06 1.00021 93.2278-1.00001 93.2278-1.00011 1.0512e-06ZM4.00054 91.8943 0.000104998 99.8952-4.00034 91.8943Z" fill="#0070C0" transform="matrix(1.00001 0 0 -1 1138 608.888)" id="ID-0000027"/>
        <path d="M1069.5 619.759C1069.5 614.088 1074.1 609.492 1079.77 609.492L1146.23 609.492C1151.9 609.492 1156.5 614.088 1156.5 619.759L1156.5 626.224C1156.5 631.895 1151.9 636.491 1146.23 636.491L1079.77 636.491C1074.1 636.491 1069.5 631.895 1069.5 626.224Z" stroke="#FF0000" stroke-width="1.3335" stroke-linejoin="round" stroke-miterlimit="10" fill="#FFE696" fill-rule="evenodd" id="ID-0000028"/>
        <text font-family="Cambria Math,Cambria Math_MSFontService,sans-serif" font-weight="400" font-size="13" transform="matrix(1 0 0 0.999986 1072.86 627)">𝑞</text>
        <text font-family="Cambria Math,Cambria Math_MSFontService,sans-serif" font-weight="400" font-size="9" transform="matrix(1 0 0 0.999986 1079.76 631)">𝑔𝑖</text>
        <text font-family="Cambria Math,Cambria Math_MSFontService,sans-serif" font-weight="400" font-size="9" transform="matrix(1 0 0 0.999986 1080.43 620)">𝐻</text>
        <text font-family="Cambria Math,Cambria Math_MSFontService,sans-serif" font-weight="400" font-size="8" transform="matrix(1 0 0 0.999986 1087.24 622)">2</text>
        <text font-family="Cambria Math,Cambria Math_MSFontService,sans-serif" font-weight="400" font-size="9" transform="matrix(1 0 0 0.999986 1092.48 620)">𝑂</text>
        <text font-family="Cambria Math,Cambria Math_MSFontService,sans-serif" font-weight="400" font-size="13" transform="matrix(1 0 0 0.999986 1100.11 627)">,</text>
        <text font-family="Cambria Math,Cambria Math_MSFontService,sans-serif" font-weight="400" font-size="13" transform="matrix(1 0 0 0.999986 1105 627)">𝑢</text>
        <text font-family="Cambria Math,Cambria Math_MSFontService,sans-serif" font-weight="400" font-size="9" transform="matrix(1 0 0 0.999986 1112.67 630)">𝑔𝑖</text>
        <text font-family="Cambria Math,Cambria Math_MSFontService,sans-serif" font-weight="400" font-size="9" transform="matrix(1 0 0 0.999986 1113.01 621)">𝑜𝑠𝑚𝑜𝑡𝑖𝑐</text>
        <path d="M921.5 619.758C921.5 614.088 926.097 609.492 931.767 609.492L948.233 609.492C953.903 609.492 958.5 614.088 958.5 619.758L958.5 626.224C958.5 631.895 953.903 636.491 948.233 636.491L931.767 636.491C926.097 636.491 921.5 631.895 921.5 626.224Z" stroke="#00B050" stroke-width="1.3335" stroke-linejoin="round" stroke-miterlimit="10" fill="#FFE696" fill-rule="evenodd" id="ID-0000029"/>
        <text fill="#FF0000" font-family="Cambria Math,Cambria Math_MSFontService,sans-serif" font-weight="400" font-size="13" transform="matrix(1 0 0 0.999986 925.32 628)">𝑣</text>
        <text fill="#FF0000" font-family="Cambria Math,Cambria Math_MSFontService,sans-serif" font-weight="400" font-size="9" transform="matrix(1 0 0 0.999986 932.521 632)">𝑖𝑛</text>
        <text fill="#FF0000" font-family="Cambria Math,Cambria Math_MSFontService,sans-serif" font-weight="400" font-size="9" transform="matrix(1 0 0 0.999986 933.442 621)">𝐻</text>
        <text fill="#FF0000" font-family="Cambria Math,Cambria Math_MSFontService,sans-serif" font-weight="400" font-size="8" transform="matrix(1 0 0 0.999986 940.256 623)">2</text>
        <text fill="#FF0000" font-family="Cambria Math,Cambria Math_MSFontService,sans-serif" font-weight="400" font-size="9" transform="matrix(1 0 0 0.999986 945.496 621)">𝑂</text>
        <path d="M958 621.991 1062.11 621.991 1062.11 623.992 958 623.992ZM1060.78 618.991 1068.78 622.992 1060.78 626.992Z" fill="#0070C0" id="ID-0000030"/>
        <path d="M1119 491.954C1119 489.214 1121.22 486.993 1123.96 486.993L1152.04 486.993C1154.78 486.993 1157 489.214 1157 491.954L1157 504.032C1157 506.772 1154.78 508.993 1152.04 508.993L1123.96 508.993C1121.22 508.993 1119 506.772 1119 504.032Z" stroke="#042433" stroke-width="2.00025" stroke-miterlimit="8" fill="url(#fill10)" fill-rule="evenodd" id="ID-0000031"/>
        <text font-family="Cambria Math,Cambria Math_MSFontService,sans-serif" font-weight="400" font-size="13" transform="matrix(1 0 0 0.999986 1124.17 502)">𝑣</text>
        <text font-family="Cambria Math,Cambria Math_MSFontService,sans-serif" font-weight="400" font-size="9" transform="matrix(1 0 0 0.999986 1130.8 507)">𝑔𝑖</text>
        <text font-family="Cambria Math,Cambria Math_MSFontService,sans-serif" font-weight="400" font-size="9" transform="matrix(1 0 0 0.999986 1132.29 495)">𝐻</text>
        <text font-family="Cambria Math,Cambria Math_MSFontService,sans-serif" font-weight="400" font-size="8" transform="matrix(1 0 0 0.999986 1139.11 497)">2</text>
        <text font-family="Cambria Math,Cambria Math_MSFontService,sans-serif" font-weight="400" font-size="9" transform="matrix(1 0 0 0.999986 1144.35 495)">𝑂</text>
        <path d="M1172.5 657.378C1172.5 651.917 1176.93 647.491 1182.39 647.491L1197.61 647.491C1203.07 647.491 1207.5 651.917 1207.5 657.378L1207.5 663.604C1207.5 669.064 1203.07 673.491 1197.61 673.491L1182.39 673.491C1176.93 673.491 1172.5 669.064 1172.5 663.604Z" stroke="#FF0000" stroke-width="1.3335" stroke-linejoin="round" stroke-miterlimit="10" fill="#FFE696" fill-rule="evenodd" id="ID-0000032"/>
        <text font-family="Cambria Math,Cambria Math_MSFontService,sans-serif" font-weight="400" font-size="13" transform="matrix(1 0 0 0.999986 1175.31 666)">𝑞</text>
        <text font-family="Cambria Math,Cambria Math_MSFontService,sans-serif" font-weight="400" font-size="9" transform="matrix(1 0 0 0.999986 1182.41 669)">𝑔𝑖</text>
        <text font-family="Cambria Math,Cambria Math_MSFontService,sans-serif" font-weight="400" font-size="9" transform="matrix(1 0 0 0.999986 1183.32 660)">𝑁𝑎</text>
        <text font-family="Cambria Math,Cambria Math_MSFontService,sans-serif" font-weight="400" font-size="8" transform="matrix(1 0 0 0.999986 1196.89 657)">+</text>
        <path d="M921.5 657.378C921.5 651.917 925.926 647.491 931.387 647.491L948.613 647.491C954.074 647.491 958.5 651.917 958.5 657.378L958.5 663.604C958.5 669.064 954.074 673.491 948.613 673.491L931.387 673.491C925.926 673.491 921.5 669.064 921.5 663.604Z" stroke="#00B050" stroke-width="1.3335" stroke-linejoin="round" stroke-miterlimit="10" fill="#FFE696" fill-rule="evenodd" id="ID-0000033"/>
        <text fill="#FF0000" font-family="Cambria Math,Cambria Math_MSFontService,sans-serif" font-weight="400" font-size="13" transform="matrix(1 0 0 0.999986 924.894 666)">𝑣</text>
        <text fill="#FF0000" font-family="Cambria Math,Cambria Math_MSFontService,sans-serif" font-weight="400" font-size="9" transform="matrix(1 0 0 0.999986 932.095 669)">𝑖𝑛</text>
        <text fill="#FF0000" font-family="Cambria Math,Cambria Math_MSFontService,sans-serif" font-weight="400" font-size="9" transform="matrix(1 0 0 0.999986 933.015 660)">𝑁𝑎</text>
        <text fill="#FF0000" font-family="Cambria Math,Cambria Math_MSFontService,sans-serif" font-weight="400" font-size="8" transform="matrix(1 0 0 0.999986 946.59 657)">+</text>
        <path d="M958 658.991 1165.73 658.991 1165.73 660.991 958 660.991ZM1164.4 655.99 1172.4 659.991 1164.4 663.991Z" fill="#3B7D23" id="ID-0000034"/>
        <path d="M1207 658.991 1280.23 658.991 1280.23 660.991 1207 660.991ZM1278.9 655.99 1286.9 659.991 1278.9 663.991Z" fill="#3B7D23" id="ID-0000035"/>
        <path d="M1287.5 657.378C1287.5 651.917 1291.93 647.491 1297.39 647.491L1320.61 647.491C1326.07 647.491 1330.5 651.917 1330.5 657.378L1330.5 663.604C1330.5 669.064 1326.07 673.491 1320.61 673.491L1297.39 673.491C1291.93 673.491 1287.5 669.064 1287.5 663.604Z" stroke="#00B050" stroke-width="1.3335" stroke-linejoin="round" stroke-miterlimit="10" fill="#FFE696" fill-rule="evenodd" id="ID-0000036"/>
        <text fill="#FF0000" font-family="Cambria Math,Cambria Math_MSFontService,sans-serif" font-weight="400" font-size="13" transform="matrix(1 0 0 0.999986 1293.48 666)">𝑣</text>
        <text fill="#FF0000" font-family="Cambria Math,Cambria Math_MSFontService,sans-serif" font-weight="400" font-size="9" transform="matrix(1 0 0 0.999986 1300.68 669)">𝑜𝑢𝑡1</text>
        <text fill="#FF0000" font-family="Cambria Math,Cambria Math_MSFontService,sans-serif" font-weight="400" font-size="9" transform="matrix(1 0 0 0.999986 1301.6 661)">𝑁𝑎</text>
        <text fill="#FF0000" font-family="Cambria Math,Cambria Math_MSFontService,sans-serif" font-weight="400" font-size="8" transform="matrix(1 0 0 0.999986 1315.18 657)">+</text>
        <path d="M0-0.66674 1.33348-0.66674 1.33348 0.66674 0 0.66674ZM2.66696-0.66674 4.00044-0.66674 4.00044 0.66674 2.66696 0.66674ZM5.33392-0.66674 6.6674-0.66674 6.6674 0.66674 5.33392 0.66674ZM8.00088-0.66674 9.33436-0.66674 9.33436 0.66674 8.00088 0.66674ZM10.6678-0.66674 12.0013-0.66674 12.0013 0.66674 10.6678 0.66674ZM13.3348-0.66674 14.6683-0.66674 14.6683 0.66674 13.3348 0.66674ZM16.0018-0.66674 17.3352-0.66674 17.3352 0.66674 16.0018 0.66674ZM18.6687-0.66674 19.5665-0.66674 19.5665 1.10248 18.233 1.10248 18.233 0 18.8997 0.66674 18.6687 0.66674ZM19.5665 2.43596 19.5665 3.76944 18.233 3.76944 18.233 2.43596ZM19.5665 5.10292 19.5665 6.43641 18.233 6.43641 18.233 5.10292ZM19.5665 7.76989 19.5665 9.10337 18.233 9.10337 18.233 7.76989ZM19.5665 10.4368 19.5665 11.7703 18.233 11.7703 18.233 10.4368ZM19.5665 13.1038 19.5665 14.4373 18.233 14.4373 18.233 13.1038ZM19.5665 15.7708 19.5665 17.1042 18.233 17.1042 18.233 15.7708ZM19.5665 18.4377 19.5665 19.7712 18.233 19.7712 18.233 18.4377ZM19.5665 21.1047 19.5665 21.6822 18.233 21.6822 18.233 21.1047ZM22.9002 20.3487 18.8997 28.3496 14.8993 20.3487Z" fill="#3B7D23" transform="matrix(-1.837e-16 -1 -1.00001 1.83697e-16 1184.85 647.391)" id="ID-0000037"/>
        <path d="M1172.5 400.381C1172.5 394.921 1176.93 390.495 1182.39 390.495L1197.61 390.495C1203.07 390.495 1207.5 394.921 1207.5 400.381L1207.5 406.608C1207.5 412.068 1203.07 416.494 1197.61 416.494L1182.39 416.494C1176.93 416.494 1172.5 412.068 1172.5 406.608Z" stroke="#FF0000" stroke-width="1.3335" stroke-linejoin="round" stroke-miterlimit="10" fill="#B0E79E" fill-rule="evenodd" id="ID-0000038"/>
        <text font-family="Cambria Math,Cambria Math_MSFontService,sans-serif" font-weight="400" font-size="13" transform="matrix(1 0 0 0.999986 1175.51 409)">𝑞</text>
        <text font-family="Cambria Math,Cambria Math_MSFontService,sans-serif" font-weight="400" font-size="9" transform="matrix(1 0 0 0.999986 1182.41 411)">𝑣𝑐</text>
        <text font-family="Cambria Math,Cambria Math_MSFontService,sans-serif" font-weight="400" font-size="9" transform="matrix(1 0 0 0.999986 1183.08 404)">𝑁𝑎</text>
        <text font-family="Cambria Math,Cambria Math_MSFontService,sans-serif" font-weight="400" font-size="8" transform="matrix(1 0 0 0.999986 1196.65 400)">+</text>
        <path d="M1.00011-3.52328e-06 1.00019 23.1372-1.00003 23.1373-1.00011 3.52328e-06ZM4.00052 21.8038 0.000104998 29.8046-4.00036 21.8038Z" fill="#3B7D23" transform="matrix(1.00001 0 0 -1 1386 389.8)" id="ID-0000039"/>
        <path d="M1368.5 400.381C1368.5 394.921 1372.93 390.495 1378.39 390.495L1393.61 390.495C1399.07 390.495 1403.5 394.921 1403.5 400.381L1403.5 406.608C1403.5 412.068 1399.07 416.494 1393.61 416.494L1378.39 416.494C1372.93 416.494 1368.5 412.068 1368.5 406.608Z" stroke="#FF0000" stroke-width="1.3335" stroke-linejoin="round" stroke-miterlimit="10" fill="#FFE696" fill-rule="evenodd" id="ID-0000040"/>
        <text font-family="Cambria Math,Cambria Math_MSFontService,sans-serif" font-weight="400" font-size="13" transform="matrix(1 0 0 0.999986 1371.47 408)">𝑞</text>
        <text font-family="Cambria Math,Cambria Math_MSFontService,sans-serif" font-weight="400" font-size="9" transform="matrix(1 0 0 0.999986 1378.38 411)">𝑝𝑡</text>
        <text font-family="Cambria Math,Cambria Math_MSFontService,sans-serif" font-weight="400" font-size="9" transform="matrix(1 0 0 0.999986 1379.04 403)">𝑁𝑎</text>
        <text font-family="Cambria Math,Cambria Math_MSFontService,sans-serif" font-weight="400" font-size="8" transform="matrix(1 0 0 0.999986 1392.62 399)">+</text>
        <path d="M1557.5 400.381C1557.5 394.921 1561.93 390.495 1567.39 390.495L1589.61 390.495C1595.07 390.495 1599.5 394.921 1599.5 400.381L1599.5 406.608C1599.5 412.068 1595.07 416.494 1589.61 416.494L1567.39 416.494C1561.93 416.494 1557.5 412.068 1557.5 406.608Z" stroke="#00B050" stroke-width="1.3335" stroke-linejoin="round" stroke-miterlimit="10" fill="#FFE696" fill-rule="evenodd" id="ID-0000041"/>
        <text fill="#FF0000" font-family="Cambria Math,Cambria Math_MSFontService,sans-serif" font-weight="400" font-size="13" transform="matrix(1 0 0 0.999986 1562.88 409)">𝑣</text>
        <text fill="#FF0000" font-family="Cambria Math,Cambria Math_MSFontService,sans-serif" font-weight="400" font-size="9" transform="matrix(1 0 0 0.999986 1570.08 412)">𝑜𝑢𝑡2</text>
        <text fill="#FF0000" font-family="Cambria Math,Cambria Math_MSFontService,sans-serif" font-weight="400" font-size="9" transform="matrix(1 0 0 0.999986 1571 403)">𝑁𝑎</text>
        <text fill="#FF0000" font-family="Cambria Math,Cambria Math_MSFontService,sans-serif" font-weight="400" font-size="8" transform="matrix(1 0 0 0.999986 1584.57 400)">+</text>
        <path d="M1403 401.994 1550.42 401.994 1550.42 403.995 1403 403.995ZM1549.09 398.994 1557.09 402.995 1549.09 406.995Z" fill="#3B7D23" id="ID-0000042"/>
        <path d="M1250.5 400.381C1250.5 394.921 1254.93 390.495 1260.39 390.495L1275.61 390.495C1281.07 390.495 1285.5 394.921 1285.5 400.381L1285.5 406.608C1285.5 412.068 1281.07 416.494 1275.61 416.494L1260.39 416.494C1254.93 416.494 1250.5 412.068 1250.5 406.608Z" stroke="#042433" stroke-width="2.00025" stroke-linejoin="round" stroke-miterlimit="10" fill="url(#fill17)" fill-rule="evenodd" id="ID-0000043"/>
        <text font-family="Cambria Math,Cambria Math_MSFontService,sans-serif" font-weight="400" font-size="13" transform="matrix(1 0 0 0.999986 1253.27 408)">𝑣</text>
        <text font-family="Cambria Math,Cambria Math_MSFontService,sans-serif" font-weight="400" font-size="9" transform="matrix(1 0 0 0.999986 1259.89 412)">𝑔𝑙</text>
        <text font-family="Cambria Math,Cambria Math_MSFontService,sans-serif" font-weight="400" font-size="9" transform="matrix(1 0 0 0.999986 1261.39 403)">𝑁𝑎</text>
        <text font-family="Cambria Math,Cambria Math_MSFontService,sans-serif" font-weight="400" font-size="8" transform="matrix(1 0 0 0.999986 1274.96 400)">+</text>
        <path d="M1285 401.994 1361.29 401.994 1361.29 403.995 1285 403.995ZM1359.96 398.994 1367.96 402.995 1359.96 406.995Z" fill="#3B7D23" id="ID-0000044"/>
        <path d="M1207 401.994 1243.39 401.994 1243.39 403.995 1207 403.995ZM1242.05 398.994 1250.05 402.995 1242.05 406.995Z" fill="#3B7D23" id="ID-0000045"/>
        <path d="M1384.96 248.997 1384.96 229.614 1385.96 230.614 1190 230.614 1191 229.614 1191 383.199 1189 383.199 1189 228.614 1386.96 228.614 1386.96 248.997ZM1194 381.866 1190 389.867 1186 381.866Z" fill="#3B7D23" id="ID-0000046"/>
        <path d="M0-0.66674 1.33348-0.66674 1.33348 0.66674 0 0.66674ZM2.66696-0.66674 4.00044-0.66674 4.00044 0.66674 2.66696 0.66674ZM5.33392-0.66674 6.6674-0.66674 6.6674 0.66674 5.33392 0.66674ZM8.00088-0.66674 9.33436-0.66674 9.33436 0.66674 8.00088 0.66674ZM10.6678-0.66674 12.0013-0.66674 12.0013 0.66674 10.6678 0.66674ZM13.3348-0.66674 14.6683-0.66674 14.6683 0.66674 13.3348 0.66674ZM16.0018-0.66674 17.3352-0.66674 17.3352 0.66674 16.0018 0.66674ZM18.5887 0.746749 18.5887 2.08023 17.2552 2.08023 17.2552 0.746749ZM18.5887 3.41371 18.5887 4.74719 17.2552 4.74719 17.2552 3.41371ZM18.5887 6.08067 18.5887 7.41415 17.2552 7.41415 17.2552 6.08067ZM18.5887 8.74763 18.5887 10.0811 17.2552 10.0811 17.2552 8.74763ZM18.5887 11.4146 18.5887 12.7481 17.2552 12.7481 17.2552 11.4146ZM18.5887 14.0816 18.5887 15.415 17.2552 15.415 17.2552 14.0816ZM18.5887 16.7485 18.5887 18.082 17.2552 18.082 17.2552 16.7485ZM18.5887 19.4155 18.5887 20.187 17.2552 20.187 17.2552 19.4155ZM21.9224 18.8535 17.922 26.8544 13.9215 18.8535Z" fill="#3B7D23" transform="matrix(1.837e-16 1 1.00001 -1.83697e-16 1386.5 416.494)" id="ID-0000047"/>
        <path d="M0-0.66674 1.33348-0.66674 1.33348 0.66674 0 0.66674ZM2.66696-0.66674 4.00044-0.66674 4.00044 0.66674 2.66696 0.66674ZM5.33392-0.66674 6.6674-0.66674 6.6674 0.66674 5.33392 0.66674ZM8.00088-0.66674 9.33436-0.66674 9.33436 0.66674 8.00088 0.66674ZM10.6678-0.66674 12.0013-0.66674 12.0013 0.66674 10.6678 0.66674ZM13.3348-0.66674 14.6683-0.66674 14.6683 0.66674 13.3348 0.66674ZM16.0018-0.66674 17.3352-0.66674 17.3352 0.66674 16.0018 0.66674ZM18.6687-0.66674 20.0022-0.66674 20.0022 0.66674 18.6687 0.66674ZM21.3357-0.66674 22.6692-0.66674 22.6692 0.66674 21.3357 0.66674ZM24.0026-0.66674 25.3361-0.66674 25.3361 0.66674 24.0026 0.66674ZM26.6696-0.66674 28.0031-0.66674 28.0031 0.66674 26.6696 0.66674ZM29.3366-0.66674 30.67-0.66674 30.67 0.66674 29.3366 0.66674ZM32.0035-0.66674 33.337-0.66674 33.337 0.66674 32.0035 0.66674ZM34.6705-0.66674 36.004-0.66674 36.004 0.66674 34.6705 0.66674ZM37.3374-0.66674 38.6709-0.66674 38.6709 0.66674 37.3374 0.66674ZM40.0044-0.66674 41.3379-0.66674 41.3379 0.66674 40.0044 0.66674ZM42.6714-0.66674 44.0048-0.66674 44.0048 0.66674 42.6714 0.66674ZM45.3383-0.66674 46.6718-0.66674 46.6718 0.66674 45.3383 0.66674ZM48.0053-0.66674 49.3388-0.66674 49.3388 0.66674 48.0053 0.66674ZM50.6723-0.66674 52.0057-0.66674 52.0057 0.66674 50.6723 0.66674ZM53.3392-0.66674 54.6727-0.66674 54.6727 0.66674 53.3392 0.66674ZM56.0062-0.66674 57.3397-0.66674 57.3397 0.66674 56.0062 0.66674ZM58.6731-0.66674 60.0066-0.66674 60.0066 0.66674 58.6731 0.66674ZM61.3401-0.66674 62.6736-0.66674 62.6736 0.66674 61.3401 0.66674ZM64.0071-0.66674 65.3405-0.66674 65.3405 0.66674 64.0071 0.66674ZM66.674-0.66674 68.0075-0.66674 68.0075 0.66674 66.674 0.66674ZM69.341-0.66674 70.6745-0.66674 70.6745 0.66674 69.341 0.66674ZM72.0079-0.66674 73.3414-0.66674 73.3414 0.66674 72.0079 0.66674ZM74.6749-0.66674 76.0084-0.66674 76.0084 0.66674 74.6749 0.66674ZM77.3419-0.66674 78.6753-0.66674 78.6753 0.66674 77.3419 0.66674ZM80.0088-0.66674 81.3423-0.66674 81.3423 0.66674 80.0088 0.66674ZM82.6758-0.66674 84.0093-0.66674 84.0093 0.66674 82.6758 0.66674ZM85.3427-0.66674 86.6762-0.66674 86.6762 0.66674 85.3427 0.66674ZM88.0097-0.66674 89.3432-0.66674 89.3432 0.66674 88.0097 0.66674ZM90.6767-0.66674 92.0101-0.66674 92.0101 0.66674 90.6767 0.66674ZM93.3436-0.66674 94.6771-0.66674 94.6771 0.66674 93.3436 0.66674ZM96.0106-0.66674 97.3441-0.66674 97.3441 0.66674 96.0106 0.66674ZM98.6775-0.66674 100.011-0.66674 100.011 0.66674 98.6775 0.66674ZM101.345-0.66674 102.678-0.66674 102.678 0.66674 101.345 0.66674ZM104.011-0.66674 105.345-0.66674 105.345 0.66674 104.011 0.66674ZM106.678-0.66674 108.012-0.66674 108.012 0.66674 106.678 0.66674ZM109.345-0.66674 110.679-0.66674 110.679 0.66674 109.345 0.66674ZM112.012-0.66674 113.346-0.66674 113.346 0.66674 112.012 0.66674ZM114.679-0.66674 116.013-0.66674 116.013 0.66674 114.679 0.66674ZM117.346-0.66674 118.68-0.66674 118.68 0.66674 117.346 0.66674ZM120.013-0.66674 121.347-0.66674 121.347 0.66674 120.013 0.66674ZM122.68-0.66674 124.014-0.66674 124.014 0.66674 122.68 0.66674ZM125.347-0.66674 126.681-0.66674 126.681 0.66674 125.347 0.66674ZM128.014-0.66674 129.348-0.66674 129.348 0.66674 128.014 0.66674ZM130.681-0.66674 132.015-0.66674 132.015 0.66674 130.681 0.66674ZM133.348-0.66674 134.682-0.66674 134.682 0.66674 133.348 0.66674ZM136.015-0.66674 137.348-0.66674 137.348 0.66674 136.015 0.66674ZM138.682-0.66674 140.015-0.66674 140.015 0.66674 138.682 0.66674ZM141.349-0.66674 142.682-0.66674 142.682 0.66674 141.349 0.66674ZM144.016-0.66674 145.349-0.66674 145.349 0.66674 144.016 0.66674ZM146.683-0.66674 148.016-0.66674 148.016 0.66674 146.683 0.66674ZM149.35-0.66674 150.683-0.66674 150.683 0.66674 149.35 0.66674ZM152.017-0.66674 153.35-0.66674 153.35 0.66674 152.017 0.66674ZM154.684-0.66674 156.017-0.66674 156.017 0.66674 154.684 0.66674ZM157.351-0.66674 158.684-0.66674 158.684 0.66674 157.351 0.66674ZM160.018-0.66674 161.351-0.66674 161.351 0.66674 160.018 0.66674ZM162.685-0.66674 164.018-0.66674 164.018 0.66674 162.685 0.66674ZM165.352-0.66674 166.685-0.66674 166.685 0.66674 165.352 0.66674ZM168.019-0.66674 169.352-0.66674 169.352 0.66674 168.019 0.66674ZM170.764 0.587991 170.764 1.92147 169.431 1.92147 169.431 0.587991ZM170.764 3.25495 170.764 4.58843 169.431 4.58843 169.431 3.25495ZM170.764 5.92191 170.764 7.25539 169.431 7.25539 169.431 5.92191ZM170.764 8.58887 170.764 9.92235 169.431 9.92235 169.431 8.58887ZM170.764 11.2558 170.764 12.5893 169.431 12.5893 169.431 11.2558ZM170.764 13.9228 170.764 15.2563 169.431 15.2563 169.431 13.9228ZM170.764 16.5898 170.764 17.9232 169.431 17.9232 169.431 16.5898ZM174.098 16.6417 170.097 24.6426 166.097 16.6417Z" fill="#3B7D23" transform="matrix(-1.00001 1.22465e-16 1.22466e-16 1 1172.6 403.494)" id="ID-0000048"/>
        <path d="M1156 621.991 1282.83 621.991 1282.83 623.992 1156 623.992ZM1281.5 618.991 1289.5 622.992 1281.5 626.992Z" fill="#0070C0" id="ID-0000049"/>
        <path d="M1289.5 619.758C1289.5 614.088 1294.1 609.492 1299.77 609.492L1317.23 609.492C1322.9 609.492 1327.5 614.088 1327.5 619.758L1327.5 626.224C1327.5 631.895 1322.9 636.491 1317.23 636.491L1299.77 636.491C1294.1 636.491 1289.5 631.895 1289.5 626.224Z" stroke="#00B050" stroke-width="1.3335" stroke-linejoin="round" stroke-miterlimit="10" fill="#FFE696" fill-rule="evenodd" id="ID-0000050"/>
        <text fill="#FF0000" font-family="Cambria Math,Cambria Math_MSFontService,sans-serif" font-weight="400" font-size="13" transform="matrix(1 0 0 0.999986 1293.33 628)">𝑣</text>
        <text fill="#FF0000" font-family="Cambria Math,Cambria Math_MSFontService,sans-serif" font-weight="400" font-size="9" transform="matrix(1 0 0 0.999986 1299.89 632)">𝑜𝑢𝑡1</text>
        <text fill="#FF0000" font-family="Cambria Math,Cambria Math_MSFontService,sans-serif" font-weight="400" font-size="9" transform="matrix(1 0 0 0.999986 1301.45 621)">𝐻</text>
        <text fill="#FF0000" font-family="Cambria Math,Cambria Math_MSFontService,sans-serif" font-weight="400" font-size="8" transform="matrix(1 0 0 0.999986 1308.27 623)">2</text>
        <text fill="#FF0000" font-family="Cambria Math,Cambria Math_MSFontService,sans-serif" font-weight="400" font-size="9" transform="matrix(1 0 0 0.999986 1313.51 621)">𝑂</text>
        <path d="M0-1.00011 11.7759-1.00011 11.7759 143.481 10.7758 142.48 26.1799 142.48 26.1799 144.481 9.7757 144.481 9.7757 0 10.7758 1.00011 0 1.00011ZM24.8464 139.48 32.8473 143.481 24.8464 147.481Z" fill="#0070C0" transform="matrix(-1.837e-16 -1 -1.00001 1.83697e-16 1137.48 486.841)" id="ID-0000051"/>
        <path d="M1.00011-1.49403e-06 1.00021 63.6192-1.00002 63.6192-1.00011 1.49403e-06ZM4.00053 62.2857 0.000104998 70.2866-4.00035 62.2857Z" fill="#3B7D23" transform="matrix(1.00001 0 0 -1 1190 486.281)" id="ID-0000052"/>
        <path d="M1169.5 546.858C1169.5 542.238 1173.25 538.493 1177.87 538.493L1202.13 538.493C1206.75 538.493 1210.5 542.238 1210.5 546.858L1210.5 552.127C1210.5 556.747 1206.75 560.492 1202.13 560.492L1177.87 560.492C1173.25 560.492 1169.5 556.747 1169.5 552.127Z" stroke="#FF0000" stroke-width="1.3335" stroke-linejoin="round" stroke-miterlimit="10" fill="#FCF4FC" fill-rule="evenodd" id="ID-0000053"/>
        <text font-family="Cambria Math,Cambria Math_MSFontService,sans-serif" font-weight="400" font-size="13" transform="matrix(1 0 0 0.999986 1172.24 554)">𝑞</text>
        <text font-family="Cambria Math,Cambria Math_MSFontService,sans-serif" font-weight="400" font-size="9" transform="matrix(1 0 0 0.999986 1179.14 558)">𝑔𝑖</text>
        <text font-family="Cambria Math,Cambria Math_MSFontService,sans-serif" font-weight="400" font-size="9" transform="matrix(1 0 0 0.999986 1189.31 558)">.</text>
        <text font-family="Cambria Math,Cambria Math_MSFontService,sans-serif" font-weight="400" font-size="9" transform="matrix(1 0 0 0.999986 1191.31 558)">𝑒𝑝𝑖</text>
        <text font-family="Cambria Math,Cambria Math_MSFontService,sans-serif" font-weight="400" font-size="9" transform="matrix(1 0 0 0.999986 1179.81 549)">𝑁𝑎</text>
        <text font-family="Cambria Math,Cambria Math_MSFontService,sans-serif" font-weight="400" font-size="8" transform="matrix(1 0 0 0.999986 1193.38 545)">+</text>
        <path d="M1.00011-3.66884e-06 1.00019 21.9548-1.00003 21.9548-1.00011 3.66884e-06ZM4.00052 20.6213 0.000104998 28.6222-4.00037 20.6213Z" fill="#3B7D23" transform="matrix(1.00001 0 0 -1 1190 537.615)" id="ID-0000054"/>
        <path d="M1.00011-4.09485e-06 1.00019 18.977-1.00003 18.977-1.00011 4.09485e-06ZM4.00051 17.6435 0.000104998 25.6444-4.00037 17.6435Z" fill="#3B7D23" transform="matrix(1.00001 0 0 -1 1190 585.637)" id="ID-0000055"/>
        <path d="M1.00011-2.07065e-06 1.0002 44.0462-1.00002 44.0462-1.00011 2.07065e-06ZM4.00053 42.7127 0.000104998 50.7136-4.00035 42.7127Z" fill="#3B7D23" transform="matrix(1.00001 0 0 -1 1190 646.705)" id="ID-0000056"/>
        <path d="M1186 526.993C1186 523.679 1187.79 520.993 1190 520.993 1192.21 520.993 1194 523.679 1194 526.993 1194 530.306 1192.21 532.993 1190 532.993 1187.79 532.993 1186 530.306 1186 526.993Z" fill="#8ED973" fill-rule="evenodd" id="ID-0000057"/>
        <text font-family="Calibri,Calibri_MSFontService,sans-serif" font-weight="400" font-size="11" transform="matrix(1 0 0 0.999986 1187.32 531)">3</text>
        <path d="M1186 476.493C1186 473.456 1187.57 470.994 1189.5 470.994 1191.43 470.994 1193 473.456 1193 476.493 1193 479.531 1191.43 481.993 1189.5 481.993 1187.57 481.993 1186 479.531 1186 476.493Z" fill="#8ED973" fill-rule="evenodd" id="ID-0000058"/>
        <text font-family="Calibri,Calibri_MSFontService,sans-serif" font-weight="400" font-size="11" transform="matrix(1 0 0 0.999986 1186.95 480)">3</text>
        <path d="M1365.5 309.242C1365.5 304.412 1369.42 300.496 1374.25 300.496L1397.75 300.496C1402.58 300.496 1406.5 304.412 1406.5 309.242L1406.5 314.75C1406.5 319.58 1402.58 323.496 1397.75 323.496L1374.25 323.496C1369.42 323.496 1365.5 319.58 1365.5 314.75Z" stroke="#FF0000" stroke-width="1.3335" stroke-linejoin="round" stroke-miterlimit="10" fill="#FCF4FC" fill-rule="evenodd" id="ID-0000059"/>
        <text font-family="Cambria Math,Cambria Math_MSFontService,sans-serif" font-weight="400" font-size="13" transform="matrix(1 0 0 0.999986 1367.9 317)">𝑞</text>
        <text font-family="Cambria Math,Cambria Math_MSFontService,sans-serif" font-weight="400" font-size="9" transform="matrix(1 0 0 0.999986 1374.81 320)">𝑝𝑡</text>
        <text font-family="Cambria Math,Cambria Math_MSFontService,sans-serif" font-weight="400" font-size="9" transform="matrix(1 0 0 0.999986 1385.57 320)">.</text>
        <text font-family="Cambria Math,Cambria Math_MSFontService,sans-serif" font-weight="400" font-size="9" transform="matrix(1 0 0 0.999986 1387.57 320)">𝑒𝑝𝑖</text>
        <text font-family="Cambria Math,Cambria Math_MSFontService,sans-serif" font-weight="400" font-size="9" transform="matrix(1 0 0 0.999986 1375.47 311)">𝑁𝑎</text>
        <text font-family="Cambria Math,Cambria Math_MSFontService,sans-serif" font-weight="400" font-size="8" transform="matrix(1 0 0 0.999986 1389.05 308)">+</text>
        <path d="M1.00011-7.28965e-06 1.00017 7.73796-1.00005 7.73797-1.00011 7.28965e-06ZM4.00049 6.40446 0.000104998 14.4054-4.00039 6.40451Z" fill="#3B7D23" transform="matrix(1.00001 0 0 -1 1386 337.401)" id="ID-0000060"/>
        <path d="M1.00011-3.66894e-06 1.00019 21.9539-1.00003 21.9539-1.00011 3.66894e-06ZM4.00052 20.6204 0.000104998 28.6213-4.00037 20.6205Z" fill="#3B7D23" transform="matrix(1.00001 0 0 -1 1386 299.618)" id="ID-0000061"/>
        <path d="M1382 288.496C1382 285.459 1383.79 282.996 1386 282.996 1388.21 282.996 1390 285.459 1390 288.496 1390 291.534 1388.21 293.996 1386 293.996 1383.79 293.996 1382 291.534 1382 288.496Z" fill="#8ED973" fill-rule="evenodd" id="ID-0000062"/>
        <text font-family="Calibri,Calibri_MSFontService,sans-serif" font-weight="400" font-size="11" transform="matrix(1 0 0 0.999986 1383.31 292)">3</text>
        <path d="M1382 239.497C1382 236.459 1383.79 233.997 1386 233.997 1388.21 233.997 1390 236.459 1390 239.497 1390 242.534 1388.21 244.997 1386 244.997 1383.79 244.997 1382 242.534 1382 239.497Z" fill="#8ED973" fill-rule="evenodd" id="ID-0000063"/>
        <text font-family="Calibri,Calibri_MSFontService,sans-serif" font-weight="400" font-size="11" transform="matrix(1 0 0 0.999986 1383.31 243)">3</text>
        <path d="M1171 579.178C1171 576.314 1173.32 573.992 1176.19 573.992L1203.81 573.992C1206.68 573.992 1209 576.314 1209 579.178L1209 591.806C1209 594.67 1206.68 596.992 1203.81 596.992L1176.19 596.992C1173.32 596.992 1171 594.67 1171 591.806Z" stroke="#042433" stroke-width="2.00025" stroke-miterlimit="8" fill="url(#fill21)" fill-rule="evenodd" id="ID-0000064"/>
        <text font-family="Cambria Math,Cambria Math_MSFontService,sans-serif" font-weight="400" font-size="13" transform="matrix(1 0 0 0.999986 1175.78 590)">𝑣</text>
        <text font-family="Cambria Math,Cambria Math_MSFontService,sans-serif" font-weight="400" font-size="9" transform="matrix(1 0 0 0.999986 1182.4 593)">𝑔𝑖</text>
        <text font-family="Cambria Math,Cambria Math_MSFontService,sans-serif" font-weight="400" font-size="9" transform="matrix(1 0 0 0.999986 1183.9 585)">𝑁𝑎</text>
        <text font-family="Cambria Math,Cambria Math_MSFontService,sans-serif" font-weight="400" font-size="8" transform="matrix(1 0 0 0.999986 1197.47 581)">+</text>
        <path d="M1171 491.18C1171 488.315 1173.32 485.993 1176.19 485.993L1203.81 485.993C1206.68 485.993 1209 488.315 1209 491.18L1209 503.807C1209 506.671 1206.68 508.993 1203.81 508.993L1176.19 508.993C1173.32 508.993 1171 506.671 1171 503.807Z" stroke="#042433" stroke-width="2.00025" stroke-miterlimit="8" fill="url(#fill22)" fill-rule="evenodd" id="ID-0000065"/>
        <text font-family="Cambria Math,Cambria Math_MSFontService,sans-serif" font-weight="400" font-size="13" transform="matrix(1 0 0 0.999986 1172.30 502)">𝑣</text>
        <text font-family="Cambria Math,Cambria Math_MSFontService,sans-serif" font-weight="400" font-size="9" transform="matrix(1 0 0 0.999986 1178.92 506)">𝑔𝑖</text>
        <text font-family="Cambria Math,Cambria Math_MSFontService,sans-serif" font-weight="400" font-size="9" transform="matrix(1 0 0 0.999986 1189.68 506)">.</text>
        <text font-family="Cambria Math,Cambria Math_MSFontService,sans-serif" font-weight="400" font-size="9" transform="matrix(1 0 0 0.999986 1191.68 506)">𝑒𝑝𝑖</text>
        <text font-family="Cambria Math,Cambria Math_MSFontService,sans-serif" font-weight="400" font-size="9" transform="matrix(1 0 0 0.999986 1180.42 497)">𝑁𝐾𝐸</text>
        <path d="M1367 342.182C1367 339.317 1369.32 336.995 1372.19 336.995L1399.81 336.995C1402.68 336.995 1405 339.317 1405 342.182L1405 354.809C1405 357.673 1402.68 359.995 1399.81 359.995L1372.19 359.995C1369.32 359.995 1367 357.673 1367 354.809Z" stroke="#042433" stroke-width="2.00025" stroke-miterlimit="8" fill="url(#fill23)" fill-rule="evenodd" id="ID-0000066"/>
        <text font-family="Cambria Math,Cambria Math_MSFontService,sans-serif" font-weight="400" font-size="13" transform="matrix(1 0 0 0.999986 1371.16 353)">𝑣</text>
        <text font-family="Cambria Math,Cambria Math_MSFontService,sans-serif" font-weight="400" font-size="9" transform="matrix(1 0 0 0.999986 1378.36 356)">𝑝𝑡</text>
        <text font-family="Cambria Math,Cambria Math_MSFontService,sans-serif" font-weight="400" font-size="9" transform="matrix(1 0 0 0.999986 1379.28 348)">𝑁𝑎</text>
        <text font-family="Cambria Math,Cambria Math_MSFontService,sans-serif" font-weight="400" font-size="8" transform="matrix(1 0 0 0.999986 1392.85 344)">+</text>
        <path d="M1367 253.957C1367 251.218 1369.22 248.997 1371.96 248.997L1400.04 248.997C1402.78 248.997 1405 251.218 1405 253.957L1405 266.036C1405 268.775 1402.78 270.996 1400.04 270.996L1371.96 270.996C1369.22 270.996 1367 268.775 1367 266.036Z" stroke="#042433" stroke-width="2.00025" stroke-miterlimit="8" fill="url(#fill24)" fill-rule="evenodd" id="ID-0000067"/>
        <text font-family="Cambria Math,Cambria Math_MSFontService,sans-serif" font-weight="400" font-size="13" transform="matrix(1 0 0 0.999986 1368.16 264)">𝑣</text>
        <text font-family="Cambria Math,Cambria Math_MSFontService,sans-serif" font-weight="400" font-size="9" transform="matrix(1 0 0 0.999986 1375.36 267)">𝑝𝑡</text>
        <text font-family="Cambria Math,Cambria Math_MSFontService,sans-serif" font-weight="400" font-size="9" transform="matrix(1 0 0 0.999986 1386.12 267)">.</text>
        <text font-family="Cambria Math,Cambria Math_MSFontService,sans-serif" font-weight="400" font-size="9" transform="matrix(1 0 0 0.999986 1388.12 267)">𝑒𝑝𝑖</text>
        <text font-family="Cambria Math,Cambria Math_MSFontService,sans-serif" font-weight="400" font-size="9" transform="matrix(1 0 0 0.999986 1376.28 259)">𝑁𝐾𝐸</text>
        <path d="M1400.5 267.024 1403.08 262.996 1402.83 266.694 1405.76 266.091 1404.6 268.076 1407.65 268.647 1405.23 270.271 1408 272.225 1404.69 271.984 1405.6 275.562 1402.74 273.036 1402.2 276.702 1400.31 273.368 1398.89 277.996 1398.36 273.848 1396.31 275.23 1396.94 272.675 1393.09 273.126 1395.58 271.173 1393 268.979 1396.21 268.286 1393.26 264.59 1398.08 267.385 1398.8 264.59Z" fill="#FF66FF" fill-rule="evenodd" id="ID-0000068"/>
        <path d="M1203.5 504.289 1206.08 499.993 1205.83 503.938 1208.76 503.295 1207.6 505.412 1210.65 506.02 1208.23 507.752 1211 509.837 1207.69 509.58 1208.6 513.397 1205.74 510.702 1205.2 514.613 1203.31 511.056 1201.89 515.993 1201.36 511.569 1199.31 513.043 1199.94 510.317 1196.09 510.798 1198.58 508.715 1196 506.375 1199.21 505.635 1196.26 501.693 1201.08 504.675 1201.8 501.693Z" fill="#FF66FF" fill-rule="evenodd" id="ID-0000069"/>
        <path d="M1089.5 449.022 1092.08 444.994 1091.83 448.692 1094.76 448.089 1093.6 450.074 1096.65 450.644 1094.23 452.268 1097 454.223 1093.69 453.981 1094.6 457.56 1091.74 455.033 1091.2 458.7 1089.31 455.365 1087.89 459.994 1087.36 455.846 1085.31 457.228 1085.94 454.672 1082.09 455.124 1084.58 453.171 1082 450.976 1085.21 450.283 1082.26 446.588 1087.08 449.383 1087.8 446.588Z" fill="#FF66FF" fill-rule="evenodd" id="ID-0000070"/>
    </g>
</svg>
